<?xml version="1.0" encoding="UTF-8"?>
<svg id="Camada_1" data-name="Camada 1" xmlns="http://www.w3.org/2000/svg" viewBox="0 0 1366 768">
  <defs>
    <style>
      .cls-1 {
        fill: #f7e21a;
      }

      .cls-2, .cls-3 {
        fill: #053ba6;
      }

      .cls-4 {
        fill: #f28a23;
      }

      .cls-3 {
        font-family: Aquawax-Black, Aquawax;
        font-size: 94.55px;
        letter-spacing: .58em;
      }
    </style>
  </defs>
  <g>
    <path class="cls-2" d="M437.18,470.57h0c-22.08,0-39.98-17.9-39.98-39.98V240.19c-.14,.41-.34,1.31-.61,2.73-.27,1.41-.57,3.03-.91,4.85-.34,1.82-.74,3.63-1.21,5.45-.47,1.82-.98,3.33-1.52,4.54l-85.09,194.96c-4.73,10.84-15.44,17.85-27.27,17.85h0c-11.84,0-22.55-7.02-27.28-17.87l-84.89-194.75c-.54-.94-1.01-2.15-1.41-3.64-.4-1.48-.78-2.99-1.11-4.54-.34-1.55-.61-2.96-.81-4.24s-.3-2.25-.3-2.93v227.96h0c-22.08,0-39.98-17.9-39.98-39.98V181.23h33.11c6.32,0,12.08,1.72,17.26,5.15,5.18,3.43,8.99,7.91,11.41,13.43l90.25,206.96c1.08,2.69,1.92,5.48,2.52,8.38,.61,2.9,.97,6.03,1.11,9.39,.4-6.73,1.68-12.65,3.84-17.77l90.25-206.96c2.56-5.79,6.46-10.33,11.71-13.63,5.25-3.3,10.9-4.95,16.96-4.95h33.92V470.57Z"/>
    <path class="cls-2" d="M800.82,294.51c-9.69,0-18.78,1.85-27.26,5.55-8.48,3.71-15.88,8.72-22.21,15.04-6.33,6.33-11.34,13.73-15.04,22.21-3.7,8.48-5.55,17.57-5.55,27.26s1.85,18.78,5.55,27.26c3.7,8.48,8.71,15.88,15.04,22.21,6.33,6.33,13.73,11.34,22.21,15.04,8.48,3.7,17.57,5.55,27.26,5.55,6.06,0,12.01-.74,17.87-2.22,5.86-1.48,11.34-3.7,16.46-6.66,4.98-2.83,10.36-4.24,16.15-4.24,4.31,0,8.21,.81,11.71,2.42,3.5,1.62,6.8,3.97,9.89,7.07l7.67,7.67c-10.09,10.77-21.94,19.28-35.53,25.54-13.6,6.26-28.34,9.39-44.22,9.39-14.94,0-29.04-2.86-42.3-8.58-13.26-5.72-24.83-13.53-34.73-23.42-9.89-9.9-17.7-21.47-23.42-34.73-5.72-13.26-8.58-27.36-8.58-42.3s2.86-29.04,8.58-42.3c5.72-13.26,13.53-24.84,23.42-34.73,9.89-9.89,21.47-17.7,34.73-23.42,13.26-5.72,27.36-8.58,42.3-8.58,15.88,0,30.62,3.13,44.22,9.39,13.6,6.26,25.44,14.77,35.53,25.54l-7.67,7.67c-3.23,3.23-6.66,5.62-10.3,7.17-3.63,1.55-7.81,2.32-12.52,2.32-5.39,0-10.37-1.41-14.94-4.24-5.12-2.96-10.6-5.11-16.46-6.46-5.86-1.34-11.81-2.15-17.87-2.42Z"/>
    <path class="cls-2" d="M890.47,205.26c0-3.77,.71-7.3,2.12-10.6,1.41-3.3,3.36-6.19,5.86-8.68,2.49-2.49,5.38-4.44,8.68-5.86,3.3-1.41,6.83-2.12,10.6-2.12s7.3,.71,10.6,2.12c3.3,1.41,6.19,3.37,8.68,5.86,2.49,2.49,4.44,5.38,5.86,8.68,1.41,3.3,2.12,6.83,2.12,10.6s-.71,7.3-2.12,10.6c-1.41,3.3-3.37,6.19-5.86,8.68-2.49,2.49-5.39,4.44-8.68,5.85-3.3,1.41-6.83,2.12-10.6,2.12s-7.3-.71-10.6-2.12c-3.3-1.41-6.19-3.36-8.68-5.85-2.49-2.49-4.44-5.38-5.86-8.68-1.41-3.3-2.12-6.83-2.12-10.6Zm47.04,93.28v172.03h0c-22.08,0-39.98-17.9-39.98-39.98v-172.03h0c22.08,0,39.98,17.9,39.98,39.98Z"/>
    <path class="cls-2" d="M1181.02,346.6c0,4.71-.91,8.92-2.73,12.62-1.82,3.71-4.07,6.87-6.76,9.49-2.7,2.62-5.69,4.64-8.99,6.06-3.3,1.41-6.43,2.12-9.39,2.12h-147.39c1.21,8.21,3.9,15.82,8.08,22.82,4.17,7,9.35,13.09,15.55,18.27,6.19,5.18,13.19,9.26,21,12.22,7.8,2.96,15.95,4.44,24.43,4.44,6.19,0,12.15-.77,17.87-2.32,5.72-1.55,11.14-3.74,16.25-6.56,2.69-1.48,5.32-2.55,7.87-3.23,2.56-.67,5.38-1.01,8.48-1.01,4.31,0,8.21,.81,11.71,2.42,3.5,1.62,6.8,3.97,9.9,7.07l7.67,7.67c-10.1,10.77-21.94,19.28-35.54,25.54-13.6,6.26-28.34,9.39-44.22,9.39-14.94,0-29.04-2.86-42.3-8.58-13.26-5.72-24.83-13.53-34.73-23.42-9.89-9.9-17.7-21.47-23.42-34.73-5.72-13.26-8.58-27.36-8.58-42.3s2.86-29.04,8.58-42.3c5.72-13.26,13.53-24.84,23.42-34.73,9.9-9.89,21.47-17.7,34.73-23.42,13.26-5.72,27.36-8.58,42.3-8.58,12.52,0,24.5,2.09,35.94,6.26,11.44,4.17,21.81,9.9,31.09,17.16,9.29,7.27,17.26,15.89,23.93,25.84,6.66,9.96,11.48,20.8,14.44,32.51,.4,1.48,.6,3.03,.6,4.64s.07,3.17,.2,4.65Zm-160.12-8.68h118.72c-2.69-6.33-6.19-12.15-10.5-17.47-4.31-5.32-9.26-9.9-14.84-13.73-5.59-3.84-11.75-6.83-18.48-8.99-6.73-2.15-13.73-3.23-21-3.23-7.94,0-15.52,1.25-22.72,3.74-7.2,2.49-13.73,5.96-19.58,10.4-5.86,4.44-10.9,9.73-15.14,15.85-4.24,6.13-7.44,12.82-9.59,20.09,1.08-1.48,2.69-2.96,4.85-4.44,2.15-1.48,4.91-2.22,8.28-2.22Z"/>
    <path class="cls-2" d="M1249.06,221.21v249.36h0c-22.08,0-39.98-17.9-39.98-39.98V181.23h0c22.08,0,39.98,17.9,39.98,39.98Z"/>
    <g>
      <path class="cls-4" d="M456.2,470.77s112.22-53.83,107.55-214.96c0,0,126.1,186.82-107.55,214.96Z"/>
      <path class="cls-1" d="M612.79,281.5s51.48,139.73-60.81,177.71c0,0,212.6,37.13,60.81-177.71Z"/>
    </g>
  </g>
  <text class="cls-3" transform="translate(229.73 582.46)"><tspan x="0" y="0">MARÍTIMA</tspan></text>
</svg>