<?xml version="1.0" encoding="utf-8"?>
<!-- Generator: Adobe Illustrator 26.5.0, SVG Export Plug-In . SVG Version: 6.00 Build 0)  -->
<svg version="1.1" id="Camada_1" xmlns="http://www.w3.org/2000/svg" xmlns:xlink="http://www.w3.org/1999/xlink" x="0px" y="0px"
	 viewBox="0 0 48 48" style="enable-background:new 0 0 48 48;" xml:space="preserve">
<style type="text/css">
	.st0{fill:#1D4395;}
	.st1{fill:#F28A23;}
	.st2{fill:#F7E21A;}
</style>
<g>
	<path class="st0" d="M34.7,47.3H13.3c-7,0-12.6-5.7-12.6-12.6V13.3c0-7,5.7-12.6,12.6-12.6h21.3c7,0,12.6,5.7,12.6,12.6v21.3
		C47.3,41.6,41.6,47.3,34.7,47.3z"/>
	<g>
		<path class="st1" d="M6.8,41.5c0,0,18.2-8.8,17.5-35C24.3,6.5,44.8,36.9,6.8,41.5z"/>
		<path class="st2" d="M32.3,10.7c0,0,8.4,22.7-9.9,28.9C22.4,39.6,57,45.6,32.3,10.7z"/>
	</g>
</g>
</svg>
